<?xml version="1.0" standalone="no"?>
<!DOCTYPE svg PUBLIC "-//W3C//DTD SVG 20010904//EN"
 "http://www.w3.org/TR/2001/REC-SVG-20010904/DTD/svg10.dtd">
<svg version="1.0" xmlns="http://www.w3.org/2000/svg"
 width="260.000000pt" height="260.000000pt" viewBox="0 0 260.000000 260.000000"
 preserveAspectRatio="xMidYMid meet">
<metadata>
Created by potrace 1.11, written by Peter Selinger 2001-2013
</metadata>
<g transform="translate(0.000000,260.000000) scale(0.100000,-0.100000)"
fill="#000000" stroke="none">
<path d="M0 2486 l0 -94 33 -6 32 -6 0 -1099 c0 -605 -3 -1103 -7 -1106 -5 -6
-28 -12 -50 -14 -5 -1 -8 -37 -8 -81 l0 -80 271 0 270 0 -3 41 c-3 39 -5 41
-58 61 -30 11 -89 29 -130 40 -41 11 -78 23 -83 27 -4 4 -8 490 -10 1079 -2
978 -1 1072 14 1072 11 0 24 -24 42 -82 14 -46 44 -144 67 -218 34 -109 195
-547 315 -855 13 -33 85 -222 160 -420 75 -198 169 -445 209 -550 l72 -190 62
0 62 0 374 935 c265 662 393 995 437 1138 47 152 67 202 78 200 11 -2 14 -15
12 -48 -2 -25 -5 -497 -8 -1050 -2 -553 -7 -1008 -11 -1011 -4 -3 -46 -16 -94
-28 -48 -11 -112 -30 -143 -42 -54 -20 -55 -21 -55 -60 l0 -39 375 0 375 0 0
70 c0 68 -1 70 -27 76 -16 3 -39 9 -53 13 l-25 8 0 1109 c0 732 3 1109 10
1110 6 0 29 4 53 8 l42 8 0 89 0 89 -251 -2 -251 -3 -29 -75 c-16 -41 -34 -84
-38 -95 -9 -21 -20 -48 -215 -545 -64 -162 -120 -304 -126 -315 -11 -25 -142
-357 -220 -560 -32 -82 -82 -225 -111 -318 -29 -92 -55 -167 -58 -167 -4 0
-30 76 -60 168 -50 152 -210 582 -509 1362 -13 36 -30 81 -37 100 -8 19 -41
107 -75 195 -34 88 -69 181 -78 208 l-16 47 -263 0 -263 0 0 -94z"/>
</g>
</svg>
